<svg xmlns="http://www.w3.org/2000/svg" enable-background="new 0 0 500 500" viewBox="0 0 500 500"><path fill="#263156" d="M229.87,353.89c-2.92,0-4.93-2.37-4.48-5.29l30.67-199.07c0.45-2.92,3.19-5.29,6.11-5.29h31.99
				c1.13,0,2.12,0.44,2.79,1.23c0.67,0.8,0.94,1.86,0.77,2.97c-0.3,1.94,1.03,3.52,2.97,3.52h44.48c0.94,0,1.88-0.37,2.64-1.03
				c0.77-0.67,1.28-1.56,1.42-2.49c0.36-2.32,2.53-4.2,4.85-4.2h31.98c2.92,0,4.94,2.37,4.49,5.29L359.9,348.6
				c-0.45,2.92-3.19,5.29-6.12,5.29H229.87z"/><polygon fill="#263156" points="389.57 145.79 383.65 138.32 383.43 148.39 385.34 149.78"/><path fill="#fff" stroke="#263156" stroke-miterlimit="10" stroke-width="1.176" d="M223.56,346.8c-2.92,0-4.93-2.37-4.48-5.29l30.67-199.07c0.45-2.92,3.19-5.29,6.11-5.29h31.99
				c1.13,0,2.12,0.44,2.79,1.23c0.67,0.8,0.94,1.86,0.77,2.97c-0.3,1.94,1.03,3.52,2.97,3.52h44.48c0.94,0,1.88-0.37,2.64-1.03
				c0.77-0.67,1.28-1.56,1.42-2.49c0.36-2.32,2.53-4.2,4.85-4.2h31.98c2.92,0,4.94,2.37,4.49,5.29l-30.67,199.07
				c-0.45,2.92-3.19,5.29-6.12,5.29H223.56z"/><polygon fill="#fff" points="375.02 174.3 350.43 340.63 224.91 340.63 249.49 174.3"/><polygon fill="#6b9e66" points="285.4 216.37 245.91 250.77 239.33 243.04 249.49 174.3 249.55 174.3"/><polygon fill="#6b9e66" points="356.43 300.08 350.43 340.63 294.86 340.63 272.76 305.89 300.69 281.56 321.42 299.88 342.96 298.38 350.63 293.27"/><path fill="#ecc351" d="M281.05,257.92l22.64-19.73l46.93,55.07c0,0-8.42,7.51-19.17,7.11s-20.33-7.41-20.33-7.41L281.05,257.92z"/><path fill="#6b9e66" d="M293.65,340.63h-68.75l5.78-39.13c7-6.09,16.97-14.84,16.97-14.84L293.65,340.63z"/><path fill="#ecc351" d="M375.02,174.3l-4.96,33.54l-30.04,25.04l-11.8-13.62l-14.9-18.43l5.56-18.63c0,0,5.95-4.56,10.63-7.92H375.02
			z"/><path fill="#dae4fe" d="M250.04,250.15l33.97-29.6l14.8,17.37l-33.97,29.6L250.04,250.15z M279.85,296.49
			c-4.66-2.2-10.74-1.45-15.6,2.28l-10.59-12.43l27.22-23.72l16.13,18.93L279.85,296.49z M345.72,292.97
			c-10.68,6.55-23.85,5.53-31.17-3.04l-27.71-32.51l16.4-14.29L345.72,292.97z M356.47,258.57l-17.01,14.83l-30.24-35.48
			l17.02-14.82L356.47,258.57z M370.83,202.68l-29.6,25.79l-20.12-23.6c-5.43-6.37-3.9-16.75,3.42-23.13l8.54-7.44h-10.4l-2.56,2.23
			c-10.61,9.25-12.84,24.29-4.96,33.53l6.67,7.83l-17.02,14.82l-14.81-17.37l-2.09-2.45l-32.9-38.6h-5.5l-0.73,4.9l30.8,36.14
			l-33.95,29.58l-5.59-6.56l-1.54,10.4l1.16,1.36l-0.02,0.02l19.25,22.58l-27.46,23.93l-1.54,10.4l17.82-15.51l11.44,13.43
			c-2.5,5.05-2.22,10.89,1.22,14.93c3.45,4.04,9.12,5.19,14.43,3.44l14.74,17.3h10.4l-18.32-21.51c5.19-5.13,6.53-12.63,3.35-18
			l16.49-14.37l7.14,8.38c9.76,11.46,27.6,12.5,41.64,3.12l5.52,6.48l1.54-10.4l-13.39-15.71l18.04-15.71l1.54-10.42l-1.03,0.89
			l-16.78-19.69l23.63-20.6L370.83,202.68z"/><ellipse cx="271.64" cy="309.87" fill="#e26d33" rx="10.13" ry="8.14" transform="rotate(-45.001 271.633 309.877)"/><g><path fill="#e26d33" d="M349.65,110.6c0,29.93-54.19,93.1-54.19,93.1s-54.19-63.17-54.19-93.1s24.26-54.19,54.19-54.19
			S349.65,80.67,349.65,110.6z"/><circle cx="295.45" cy="109.99" r="37.95" fill="#fff"/><path fill="#263156" d="M293.35,116.05c0,0.93-0.13,1.81-0.37,2.61h-8c-0.24-0.8-0.37-1.68-0.37-2.61c0-3.58,1.96-6.48,4.37-6.48
							C291.39,109.58,293.35,112.48,293.35,116.05z"/><ellipse cx="285.89" cy="116.01" fill="#263156" rx="3.61" ry="5.35"/><path fill="#263156" d="M285.89,110.65h2.92v10.71h-2.92c0,0-1.85-4.44-1.75-5.34S285.89,110.65,285.89,110.65z"/><ellipse cx="288.81" cy="116.01" fill="#263156" rx="3.61" ry="5.35"/><path fill="#dae4fe" d="M288.81,120.69c-0.23,0-0.47-0.04-0.71-0.13c-0.6-0.23-1.14-0.73-1.54-1.46
									c-0.23-0.41-0.41-0.87-0.53-1.37c-0.09-0.35-0.15-0.71-0.18-1.07c-0.02-0.23-0.03-0.45-0.03-0.66
									c0-0.21,0.01-0.44,0.03-0.67c0.03-0.35,0.09-0.71,0.18-1.07c0.12-0.5,0.3-0.96,0.53-1.37c0.41-0.73,0.94-1.23,1.54-1.46
									c0.48-0.17,0.95-0.17,1.42,0c0.6,0.23,1.13,0.73,1.54,1.46c0.23,0.41,0.41,0.87,0.53,1.37c0.09,0.35,0.15,0.71,0.18,1.07
									c0.02,0.23,0.03,0.46,0.03,0.67c0,0.21-0.01,0.43-0.03,0.66c-0.03,0.36-0.09,0.72-0.18,1.07c-0.12,0.5-0.3,0.96-0.53,1.37
									c-0.41,0.72-0.94,1.23-1.54,1.46C289.28,120.65,289.04,120.69,288.81,120.69z M288.81,111.68c-0.19,0-0.39,0.04-0.59,0.11
									c-0.52,0.2-0.98,0.64-1.35,1.29c-0.21,0.38-0.38,0.81-0.5,1.28c-0.09,0.34-0.14,0.67-0.17,1.01
									c-0.02,0.22-0.03,0.43-0.03,0.64c0,0.2,0.01,0.41,0.03,0.63c0.03,0.34,0.09,0.68,0.17,1.01c0.12,0.47,0.28,0.9,0.5,1.28
									c0.36,0.65,0.83,1.1,1.35,1.3c0.39,0.14,0.78,0.14,1.17,0c0.52-0.2,0.99-0.65,1.35-1.29c0.21-0.38,0.38-0.81,0.5-1.28
									c0.08-0.33,0.14-0.67,0.17-1.01c0.02-0.22,0.03-0.43,0.03-0.63c0-0.2-0.01-0.41-0.03-0.64c-0.03-0.34-0.09-0.67-0.17-1.01
									c-0.12-0.47-0.28-0.9-0.5-1.28c-0.37-0.65-0.84-1.1-1.35-1.3C289.2,111.72,289,111.68,288.81,111.68z"/><path fill="#dae4fe" d="M289.46,111.62v8.78c-0.21,0.08-0.42,0.12-0.65,0.12c-0.22,0-0.44-0.04-0.65-0.12v-8.78
										c0.21-0.08,0.42-0.12,0.65-0.12C289.03,111.5,289.25,111.54,289.46,111.62z"/><path fill="#dae4fe" d="M291.62,116.01c0,0.22-0.01,0.44-0.03,0.65h-5.57c-0.02-0.21-0.03-0.43-0.03-0.65
										c0-0.22,0.01-0.44,0.03-0.65h5.57C291.61,115.57,291.62,115.79,291.62,116.01z"/><path fill="#dae4fe" d="M291.42,114.31l-1.96,1.96l-0.38,0.38l-0.27,0.27l-0.65,0.65l-1.45,1.45
										c-0.22-0.39-0.39-0.83-0.51-1.32l1.04-1.04l0.65-0.65l0.27-0.27l0.38-0.38l2.36-2.36
										C291.12,113.38,291.3,113.83,291.42,114.31z"/><path fill="#dae4fe" d="M291.42,117.7c-0.12,0.49-0.3,0.94-0.51,1.32l-1.45-1.45l-0.65-0.65l-0.27-0.27l-0.38-0.38l-1.96-1.96
										c0.12-0.49,0.3-0.94,0.51-1.32l2.36,2.36l0.38,0.38l0.27,0.27l0.65,0.65L291.42,117.7z"/><path fill="#263156" d="M275.29,116.05c0,0.93-0.13,1.81-0.37,2.61h-8c-0.24-0.8-0.37-1.68-0.37-2.61c0-3.58,1.96-6.48,4.37-6.48
							C273.34,109.58,275.29,112.48,275.29,116.05z"/><ellipse cx="267.83" cy="116.01" fill="#263156" rx="3.61" ry="5.35"/><path fill="#263156" d="M267.83,110.65h2.92v10.71h-2.92c0,0-1.85-4.44-1.75-5.34S267.83,110.65,267.83,110.65z"/><ellipse cx="270.76" cy="116.01" fill="#263156" rx="3.61" ry="5.35"/><path fill="#263156" d="M309.63,116.05c0,0.93-0.13,1.81-0.37,2.61h-8c-0.24-0.8-0.37-1.68-0.37-2.61c0-3.58,1.96-6.48,4.37-6.48
							C307.67,109.58,309.63,112.48,309.63,116.05z"/><ellipse cx="302.17" cy="116.01" fill="#263156" rx="3.61" ry="5.35"/><path fill="#263156" d="M302.17,110.65h2.92v10.71h-2.92c0,0-1.85-4.44-1.75-5.34S302.17,110.65,302.17,110.65z"/><ellipse cx="305.1" cy="116.01" fill="#263156" rx="3.61" ry="5.35"/><g><path fill="#263156" d="M326.05,116.05c0,0.93-0.13,1.81-0.37,2.61h-8c-0.24-0.8-0.37-1.68-0.37-2.61c0-3.58,1.96-6.48,4.37-6.48
							C324.09,109.58,326.05,112.48,326.05,116.05z"/><ellipse cx="318.59" cy="116.01" fill="#263156" rx="3.61" ry="5.35"/><path fill="#263156" d="M318.59,110.65h2.92v10.71h-2.92c0,0-1.85-4.44-1.75-5.34S318.59,110.65,318.59,110.65z"/><ellipse cx="321.51" cy="116.01" fill="#263156" rx="3.61" ry="5.35"/><path fill="#dae4fe" d="M321.51,120.69c-0.23,0-0.47-0.04-0.71-0.13c-0.6-0.23-1.14-0.73-1.54-1.46
									c-0.23-0.41-0.41-0.87-0.53-1.37c-0.09-0.35-0.15-0.71-0.18-1.07c-0.02-0.23-0.03-0.45-0.03-0.66
									c0-0.21,0.01-0.44,0.03-0.67c0.03-0.35,0.09-0.71,0.18-1.07c0.12-0.5,0.3-0.96,0.53-1.37c0.41-0.73,0.94-1.23,1.54-1.46
									c0.48-0.17,0.95-0.17,1.42,0c0.6,0.23,1.13,0.73,1.54,1.46c0.23,0.41,0.41,0.87,0.53,1.37c0.09,0.35,0.15,0.71,0.18,1.07
									c0.02,0.23,0.03,0.46,0.03,0.67c0,0.21-0.01,0.43-0.03,0.66c-0.03,0.36-0.09,0.72-0.18,1.07c-0.12,0.5-0.3,0.96-0.53,1.37
									c-0.41,0.72-0.94,1.23-1.54,1.46C321.98,120.65,321.74,120.69,321.51,120.69z M321.51,111.68c-0.19,0-0.39,0.04-0.59,0.11
									c-0.52,0.2-0.98,0.64-1.35,1.29c-0.21,0.38-0.38,0.81-0.5,1.28c-0.09,0.34-0.14,0.67-0.17,1.01
									c-0.02,0.22-0.03,0.43-0.03,0.64c0,0.2,0.01,0.41,0.03,0.63c0.03,0.34,0.09,0.68,0.17,1.01c0.12,0.47,0.28,0.9,0.5,1.28
									c0.36,0.65,0.83,1.1,1.35,1.3c0.39,0.14,0.77,0.14,1.17,0c0.52-0.2,0.99-0.65,1.35-1.29c0.21-0.38,0.38-0.81,0.5-1.28
									c0.08-0.33,0.14-0.67,0.17-1.01c0.02-0.22,0.03-0.43,0.03-0.63c0-0.2-0.01-0.41-0.03-0.64c-0.03-0.34-0.09-0.67-0.17-1.01
									c-0.12-0.47-0.28-0.9-0.5-1.28c-0.37-0.65-0.84-1.1-1.35-1.3C321.9,111.72,321.7,111.68,321.51,111.68z"/><path fill="#dae4fe" d="M322.16,111.62v8.78c-0.21,0.08-0.42,0.12-0.65,0.12c-0.22,0-0.44-0.04-0.65-0.12v-8.78
										c0.21-0.08,0.42-0.12,0.65-0.12C321.73,111.5,321.95,111.54,322.16,111.62z"/><path fill="#dae4fe" d="M324.32,116.01c0,0.22-0.01,0.44-0.03,0.65h-5.57c-0.02-0.21-0.03-0.43-0.03-0.65
										c0-0.22,0.01-0.44,0.03-0.65h5.57C324.31,115.57,324.32,115.79,324.32,116.01z"/><path fill="#dae4fe" d="M324.12,114.31l-1.96,1.96l-0.38,0.38l-0.27,0.27l-0.65,0.65l-1.45,1.45
										c-0.22-0.39-0.39-0.83-0.51-1.32l1.04-1.04l0.65-0.65l0.27-0.27l0.38-0.38l2.36-2.36
										C323.82,113.38,324,113.83,324.12,114.31z"/><path fill="#dae4fe" d="M324.12,117.7c-0.12,0.49-0.3,0.94-0.51,1.32l-1.45-1.45l-0.65-0.65l-0.27-0.27l-0.38-0.38l-1.96-1.96
										c0.12-0.49,0.3-0.94,0.51-1.32l2.36,2.36l0.38,0.38l0.27,0.27l0.65,0.65L324.12,117.7z"/></g><g><path fill="#6b9e66" d="M280.66,102.95c0.22,0.89-2.19,2.51-3.5,2.76c-0.97,0.18-1.58-0.47-1.85-0.85
							c-0.01-0.02-0.03-0.04-0.04-0.07c-0.09-0.15-0.14-0.31-0.15-0.49c-0.02-0.55,0.17-1.71,1.99-2.14
							c2.42-0.56,3.14-0.16,3.53,0.71C280.65,102.9,280.66,102.92,280.66,102.95z"/><path fill="#263156" d="M280.66,102.95c0.22,0.89-2.19,2.51-3.5,2.76c-0.97,0.18-1.58-0.47-1.85-0.85
							c-0.01-0.02-0.03-0.04-0.04-0.07C278.28,104.96,279.95,103.7,280.66,102.95z"/></g><g><path fill="#6b9e66" d="M329.05,112.83v0.03l-0.05,1.38l-0.13,3.55l-3.44,0.66c0.17-0.67,0.26-1.38,0.26-2.13
						c0-0.29-0.01-0.58-0.04-0.85c-0.28-2.98-2.01-5.27-4.1-5.27c-2.28,0-4.13,2.74-4.13,6.13c0,0.83,0.11,1.62,0.31,2.34H292.6
						c0.21-0.72,0.32-1.51,0.32-2.34c0-3.38-1.85-6.13-4.13-6.13c-2.29,0-4.14,2.74-4.14,6.13v0.06c0.01,0.8,0.12,1.58,0.31,2.28
						h-22.69c-0.76,0-1.38-0.6-1.41-1.36c-0.01-0.28-0.02-0.59-0.02-0.92c-0.01-1.02,0.01-2.24,0.15-3.34
						c0.13-1.06,0.37-2.01,0.77-2.54c0.07-0.09,0.18-0.19,0.31-0.29c2.38-1.83,13.98-4.9,13.98-4.9s7.18-6.27,12.88-8.17
						c5.7-1.9,24.38-0.95,26.23,0.05c1.85,1,7.89,6.84,7.89,6.84s2.02,0.06,3.24,1.21c0.33,0.31,0.6,0.69,0.75,1.17
						c0.18,0.53,0.34,1.12,0.48,1.71c0.49,1.97,0.8,3.99,0.8,3.99C328.72,112.11,329.05,112.43,329.05,112.83z"/></g><g><path fill="#263156" d="M269.68,110.2h-0.03h-4.67c-0.24,0-0.42,0.22-0.38,0.46l0.49,2.5c0.04,0.18,0.19,0.31,0.38,0.31h4.18
								h0.03h4.22c0.17,0,0.31-0.11,0.37-0.26l0.82-2.5c0.08-0.25-0.1-0.51-0.37-0.51H269.68z"/><polygon fill="#6b9e66" points="269.68 110.98 269.65 110.98 265.23 110.98 265.23 111.23 269.65 111.23 269.68 111.23 274.11 111.23 274.11 110.98"/><polygon fill="#6b9e66" points="269.66 111.71 265.65 111.71 265.65 111.97 269.66 111.97 269.68 111.97 273.69 111.97 273.69 111.71 269.68 111.71"/><polygon fill="#6b9e66" points="269.66 112.44 266.09 112.44 266.09 112.7 269.66 112.7 269.68 112.7 273.24 112.7 273.24 112.44 269.68 112.44"/><path fill="#263156" d="M299.18,97.55c-0.48,0.47-1.47,1.46-2.31,2.41c-1.14,1.31-2.8,4.06-3.59,4.87
							c-0.78,0.81-6.64,0.59-6.64,0.59l-2.73-0.01l-2.73-0.01l-2.1-0.01l-2.73-0.01h-0.01c0,0,0.03-0.02,0.09-0.07
							c0,0,0-0.01,0.01-0.01c0.9-0.73,8.22-6.56,11.81-7.45c0.99-0.24,2.09-0.4,3.21-0.49c0.53-0.04,1.07-0.07,1.6-0.09
							c0.99-0.04,1.96-0.04,2.83-0.03c1.38,0.02,2.52,0.06,3.18,0.05C299.2,97.29,299.27,97.46,299.18,97.55z"/><path fill="#263156" d="M320.1,104.03c-0.09,0.18-1.67,0.36-4,0.54c-0.34,0.03-0.69,0.05-1.06,0.08c-2.05,0.14-4.52,0.28-7,0.4
							c-0.36,0.02-0.71,0.04-1.07,0.05c-0.82,0.04-1.63,0.08-2.43,0.11c-0.98,0.04-1.93,0.08-2.83,0.12
							c-3.69,0.15-6.47,0.25-6.47,0.25s2.17-3.72,4.37-6.17c0.56-0.63,1.13-1.18,1.66-1.56c0.31-0.22,0.61-0.38,0.88-0.47
							c0.34-0.11,0.78-0.19,1.29-0.26c0.31-0.04,0.65-0.07,1.01-0.09c2.18-0.15,5.11-0.03,7.32,0.23c0.41,0.05,0.79,0.1,1.13,0.16
							c0.89,0.15,1.57,0.32,1.88,0.51C316.15,98.78,320.45,103.32,320.1,104.03z"/><g><path fill="#6b9e66" d="M310.01,105.09c0.13-3.64-1.81-8.08-1.81-8.08l-1.24-0.19c0,0,1.49,2.44,1.92,8.42L310.01,105.09z"/></g><g><path fill="#dae4fe" d="M275,113.06c0,0,0.76-2.52,1.73-2.83c0.97-0.31,5.68-0.62,5.94-0.43c0.26,0.19-0.4,2.64-0.97,2.87
							C281.13,112.91,275,113.06,275,113.06z"/><path fill="#263156" d="M274.91,113.13l0.03-0.09c0.03-0.1,0.78-2.56,1.78-2.87c0.94-0.3,5.71-0.63,6-0.42
							c0.05,0.04,0.12,0.13,0.07,0.51c-0.09,0.75-0.58,2.28-1.06,2.48c-0.58,0.24-6.47,0.38-6.72,0.39L274.91,113.13z
							 M282.04,109.81c-1.34,0-4.5,0.24-5.28,0.48c-0.83,0.26-1.52,2.25-1.66,2.7c2.14-0.05,6.15-0.19,6.58-0.37
							c0.39-0.16,0.89-1.59,0.98-2.37c0.04-0.34-0.02-0.39-0.02-0.39C282.59,109.82,282.37,109.81,282.04,109.81z"/></g><g><path fill="#dae4fe" d="M327.52,108.12c-0.64,0.08-1.12,0.13-1.27,0.1c-0.61-0.12-1.75-2.38-1.53-2.62
							c0.08-0.08,0.72-0.23,1.57-0.36c0.33,0.31,0.6,0.69,0.75,1.17C327.21,106.93,327.37,107.52,327.52,108.12z"/></g></g><g><path fill="#dae4fe" d="M264.27,113.15c0,0-1.65-0.04-3.31-0.11c0.13-1.06,0.37-2.01,0.77-2.54c0.07-0.09,0.18-0.19,0.31-0.29
						c0.21,0.04,0.38,0.07,0.49,0.11C263.51,110.63,264.27,113.15,264.27,113.15z"/></g><g><path fill="#6b9e66" d="M301.35,104.36c0.04,0.92-2.66,2.01-3.99,1.98c-0.99-0.02-1.45-0.78-1.64-1.21
							c-0.01-0.02-0.02-0.05-0.03-0.07c-0.06-0.16-0.08-0.34-0.05-0.51c0.09-0.55,0.52-1.64,2.39-1.68
							c2.49-0.05,3.11,0.48,3.31,1.41C301.35,104.31,301.35,104.33,301.35,104.36z"/><path fill="#263156" d="M301.35,104.36c0.04,0.92-2.66,2.01-3.99,1.98c-0.99-0.02-1.45-0.78-1.64-1.21
							c-0.01-0.02-0.02-0.05-0.03-0.07C298.61,105.84,300.5,104.95,301.35,104.36z"/></g><g opacity=".5"><path fill="#263156" d="M307.18,116.85h-11.24c-0.22,0-0.43-0.09-0.59-0.24c-0.16-0.16-0.24-0.37-0.24-0.59l0.09-10.43l0.08,0
						l-0.09,10.43c0,0.2,0.07,0.39,0.21,0.53c0.14,0.14,0.33,0.22,0.53,0.22h11.24c0.74,0,1.36-0.55,1.44-1.29
						c0.58-5.53,0.18-10.45,0.18-10.5l0.08-0.01c0,0.05,0.4,4.97-0.18,10.51C308.62,116.27,307.97,116.85,307.18,116.85z"/></g><g opacity=".5"><path fill="#263156" d="M316.8,116.88h-9.62v-0.08h9.53c-0.14-2.92,0.85-4.77,1.71-5.82c0.85-1.04,1.74-1.5,1.9-1.58l-0.27-5.37
						l0.08,0l0.27,5.43l-0.03,0.01c-0.04,0.02-3.87,1.8-3.59,7.37L316.8,116.88z"/></g><g><path fill="#263156" d="M284.96,118.66h-22.69c-0.76,0-1.38-0.6-1.41-1.36c-0.01-0.28-0.02-0.59-0.02-0.92h23.81
						C284.65,117.19,284.77,117.96,284.96,118.66z"/></g><g opacity=".2"><path fill="#dae4fe" d="M316.53,117.91h-21.57c-0.11,0-0.21-0.09-0.21-0.21l0,0c0-0.11,0.09-0.21,0.21-0.21h21.57
						c0.11,0,0.21,0.09,0.21,0.21l0,0C316.73,117.82,316.64,117.91,316.53,117.91z"/></g><g><path fill="#263156" d="M328.99,114.24l-0.13,3.55l-3.44,0.66c0.17-0.67,0.26-1.38,0.26-2.13c0-0.29-0.01-0.58-0.04-0.85
						C326.56,115.28,327.8,114.92,328.99,114.24z"/></g><g opacity=".2"><path fill="#dae4fe" d="M318.37,106.68l-20.44,1.34c-0.17,0.01-0.31-0.12-0.32-0.28l-0.02-0.31c-0.01-0.17,0.12-0.31,0.28-0.32
						l20.44-1.34c0.17-0.01,0.31,0.12,0.32,0.28l0.02,0.31C318.66,106.52,318.54,106.67,318.37,106.68z"/></g></g><g><path fill="#e26d33" d="M178.03,144.81c5.36-0.2,7.73,2.37,8.36,5.18l0.51-0.23c0,0,11.37,7.93,7.79,17.82
			c-2.13,5.89-18.34,5.39-18.34,5.39l0.11-1.78c-0.06,0.06-0.1,0.1-0.11,0.1c-0.13-0.15-18.58-9.69-18.58-9.69
			S151.79,145.78,178.03,144.81z"/><path fill="#ebaec1" d="M173.07,326.75c0.76,7.79,3.88,21.75,4.29,25.49c0.23,2.01-0.97,15.06-0.73,22.21
			c0.61,17.68,5.01,37.65,3.57,48.34c0,0,13.04,7.71,17.85,4.04c-2.53,0.93-1.26-16.62-1.26-23.36c0-42.1,3.98-42.95,4.65-51.35
			c0.5-6.26-0.4-22.23-0.81-30.08C196.21,324.49,177.01,327.2,173.07,326.75z"/><path fill="#ebaec1" d="M164.35,308.25c-2.21,14.06-1.51,25.63-1.79,27.51c-0.79,5.34-10.77,23.09-12.93,30.93
			c-4.08,14.73-11.95,58.24-11.95,58.24l-13.35-9.78c0,0,5.59-55.26,10.74-64.26c1.37-2.39,1.58-13.89,1.28-18.31
			c-0.29-4.43-0.36-19.26-0.36-19.26c-0.06-0.92-0.11-1.83-0.15-2.72C140.46,311.53,154.81,309.78,164.35,308.25z"/><path fill="#263156" d="M122.55,423.25c0,0,0.04,10.17,1.16,11.86c3.76,5.68,13.98,5.27,19.33,2.84c3.38-1.53,1.35-8.64,1.35-8.64
				l0,0L122.55,423.25z"/><path fill="#e26d33" d="M139.64,415.05c0,0,2.19,7.23,2.59,8.01c0.4,0.79,7.46,12.21-4.01,13.02s-13.78-1.11-15.43-9.01
				c-0.95-4.56,1.82-12.83,1.82-12.83s0.28,2.6,4.11,3.16C135.45,418.38,138.58,417.39,139.64,415.05z"/><path fill="#fff" d="M137.73,419.95l-8.69,0.08c-0.32,0-0.59-0.26-0.59-0.58l0,0c0-0.32,0.26-0.59,0.58-0.59l8.69-0.08
				c0.32,0,0.59,0.26,0.59,0.58l0,0C138.31,419.68,138.05,419.94,137.73,419.95z"/><path fill="#fff" d="M137.96,422.32l-8.69,0.08c-0.32,0-0.59-0.26-0.59-0.58l0,0c0-0.32,0.26-0.59,0.58-0.59l8.69-0.08
				c0.32,0,0.59,0.26,0.59,0.58l0,0C138.54,422.05,138.28,422.32,137.96,422.32z"/><path fill="#fff" d="M138.19,425.11l-8.69,0.08c-0.32,0-0.59-0.26-0.59-0.58l0,0c0-0.32,0.26-0.59,0.58-0.59l8.69-0.08
				c0.32,0,0.59,0.26,0.59,0.58l0,0C138.78,424.84,138.52,425.11,138.19,425.11z"/><polygon fill="#ebaec1" points="224.59 255.02 226.71 263.98 217.22 266.43 209.51 249.17"/><path fill="#ebaec1" d="M226.71,263.98c0,0,5.3,8.76,5.64,10.94c0.34,2.18-0.8,9.36-1.72,10.39c-0.92,1.03-3.62,2.7-6.08,3.39
					c-2.47,0.69-4.94,0.06-4.94-0.46s1.26-2.07,2.64-2.3c0,0-2.41-0.34-2.12-1.44c0.29-1.09,2.3-0.4,3.79-0.63s3.56-2.3,3.5-3.9
					c-0.06-1.61-2.18-4.99-2.18-4.99s-3.95-0.13-5.74-1.26c-1.72-1.09-2.37-4.36-2.28-7.29
					C217.32,263.5,226.71,263.98,226.71,263.98z"/><path fill="none" stroke="#263156" stroke-miterlimit="10" stroke-width=".507" d="M222.25,285.94c0,0,5.22-0.29,5.74-2.35s0.4-2.93,0.4-2.93"/><path fill="#263156" d="M129.49,365.65c1.21-9.1,5.16-16.99,5.47-17.9c0.31-0.91,0.65-33.28-0.22-45.64
			c-1.41-20.34,3.86-34.51,3.86-34.51l18.46-14.43l40.29,14.72c1.34,17.98,6.99,65.99,6.39,71.65c-0.6,5.66-4.1,30.67-4.05,41.75
			c0.05,11.08-0.71,27.31-0.71,27.31s-16.31,4.01-21.62-0.46c0,0-0.13-14.25-1.44-23.21c-1.82-12.44-0.48-39.35-0.84-44.14
			c-0.35-4.79-7.04-38.68-7.04-38.68s-1.74,21.01-3.3,34.57c0,0-0.48,9.32-6.57,19.46c-6.03,10.03-13.17,50.41-13.17,50.41
			c-16.41,1.59-19.3-3.73-19.3-3.73S128.27,374.76,129.49,365.65z"/><path fill="none" stroke="#dae4fe" stroke-miterlimit="10" stroke-width=".507" d="M134.95,347.75c0,0,2.57-6.07,9.39-8.95"/><line x1="168.04" x2="170.45" y1="302.11" y2="289.79" fill="none" stroke="#dae4fe" stroke-miterlimit="10" stroke-width=".507"/><path fill="none" stroke="#dae4fe" stroke-miterlimit="10" stroke-width=".507" d="M169.24,295.95c0,0,4.52-1.86,6.37-3.39"/><path fill="#ebaec1" d="M196.96,175.8c-0.04-0.12-11.67,11.52-18.97,8.9c-8.16-2.95-11.37-19.83-11.37-19.83l1.79-16.81l0.02-0.28
					l0.06-1.01l1.61,0.64l6.4,2.54l2.57,1.03l6.56,2.6c0,0-0.01,4.36,0.71,7.92c0.08,0.38,0.15,0.73,0.24,1.07
					c0.17,0.58,0.43,1.14,0.72,1.62c0.68,1.13,1.54,1.87,1.54,1.88C190.39,169.61,196.9,175.8,196.96,175.8z"/><path fill="#ebaec1" d="M195.42,145.3c-3.06,8.88-7.71,17.6-16.38,15.28c-6.06-1.62-11.08-10.82-11.56-18.8
							c-0.24-4.12-0.5-7.72-0.2-10.38c0.24-2.1,0.48-3.41,0.48-3.41l2.01-4.41l1.18-2.58c0,0,2.16-1.39,4.57-2.95
							c3.01-1.96,6.91,1.77,7,1.63c0.14-0.23,12.71-0.61,16.07,4.78c0.01,0.01,0.02,0.03,0.02,0.03c0.31,0.49,0.53,0.98,0.65,1.47
							c0.1,0.41,0.13,0.81,0.09,1.2c-0.09,0.76-0.24,1.91-0.45,3.35c-0.1,0.6-0.19,1.26-0.31,1.96c-0.2,1.17-0.44,2.46-0.72,3.81
							C197.29,139.09,196.48,142.23,195.42,145.3z"/><path fill="#263156" d="M193.9,149.37c-2.8,8.11-6.91,12.91-14.95,11.22c-7.7-1.61-10.89-10.37-11.33-17.67
							c0.84-1.63,1.98-5.75,1.98-5.75s2.33-2.88,2.29-2.77c-0.4,1.26-1.27,10.05,2.4,11.56c3.97,1.64,5.33,2.86,6.9,3
							c1.57,0.15,2.09-0.35,3.43,0.15c1.35,0.49,2.22,1.32,4.12,1.21C190.52,150.2,192.32,151.66,193.9,149.37z"/><path fill="#263156" d="M166.88,131.26c0,0,0.69-20.1,12.3-18.84c0,0,9.5-3.25,18.89,3.61c6.17,4.51,2.92,12.2,1.96,14.88
							c-0.6,1.68-1.45,3.04-1.67,2.92c-0.61-0.33-0.49-2.07-2.88-1.78c-9.69,1.14-14.85-6.59-17.66-5.34s-10.21,16.2-10.21,16.2
							S167.92,135.5,166.88,131.26z"/><path fill="#ebaec1" d="M168.99,133.24c0,0-4.83-4.33-5.48,1.11s4.11,8.57,4.11,8.57L168.99,133.24z"/><path fill="#263156" d="M167.41,134.77c0,0-4.01-1.92-0.66,4.55L167.41,134.77z"/><ellipse cx="190.85" cy="142.34" fill="#263156" rx="1.49" ry=".87" transform="rotate(-67.797 190.846 142.337)"/><ellipse cx="180.99" cy="139.61" fill="#263156" rx="1.49" ry=".87" transform="rotate(-67.797 180.982 139.599)"/><path fill="#263156" d="M189.92,139.38c0,0,2.79-1.41,4.71,0.08L189.92,139.38z"/><path fill="#263156" d="M178.23,135.16c0.2,0.01,3.46,0.01,4.99,2.37L178.23,135.16z"/><path fill="none" stroke="#263156" stroke-miterlimit="10" stroke-width=".507" d="M185.84,142.23c0,0-1,2.28-0.07,3.15c0.93,0.87,0.94,3.37-1.78,1.98"/><path fill="#fff" d="M186.04,153.93c0,0-0.16,0.21-0.49,0.45c-0.57,0.45-1.66,1.03-3.17,0.68c-1.49-0.35-2.33-1.42-2.75-2.15
								c-0.23-0.41-0.33-0.71-0.33-0.71"/><path fill="#e26d33" d="M198.63,169.58c0,0,9.91,6.71,12.73,21.33s2.64,31.17,3.7,32.05c1.06,0.88,7.53,19.66,10.7,34.1
			c0,0-2.78,0.07-11.59,3.76c0,0-10.21-14.44-15.32-27.12c-5.13-12.74-5.64-27.3-5.64-27.3l0.7-33.99L198.63,169.58z"/><path fill="#e26d33" d="M138.59,267.6c4.12,4.39,59.04,4.32,60,1.23c2.34-7.52-1.78-23.13-2.46-32.65
			c-0.58-8.16,0.45-17.76,1.2-24.03c0.12-1.04,0.23-2,0.34-2.84c0.48-4.02,0.76-7.6,0.93-10.79c0.77-15.06-1.19-21.86,0.04-28.94
			l-10.27-5.2l-1.56-0.79c0,0,0.25,6.05-6.23,6.38c-8.33,0.44-13.43-11.08-13.43-11.08s-0.52,0.12-2.03,0.49
			c-6.09,1.43-21.41,5.09-22.47,5.55c-1.25,0.53,0.52,15.53,0.31,28.57c-0.01,0.81-0.04,1.63-0.06,2.41
			c-0.01,0.32-0.03,0.63-0.04,0.93c-0.13,3.37-0.3,6.55-0.46,9.41c-0.06,1.24-0.56,12.5-1.03,16.03
			C139.81,234,134.95,263.71,138.59,267.6z"/><path fill="none" stroke="#263156" stroke-miterlimit="10" stroke-width=".507" d="M196.04,225.15c0,0,0.12-19.39,1.73-26.77"/><path fill="none" stroke="#263156" stroke-miterlimit="10" stroke-width=".507" d="M189.12,236.53l-34.59-1.82c0,0,2.67,15.25-7.82,22.76c0,0,29.1,5.61,47.77,0.87
			C194.46,258.34,187.07,245.98,189.12,236.53z"/><polygon fill="#dae4fe" points="167.62 217.6 193.3 197.01 205.25 199.89 183.3 218.96"/><polygon fill="#dae4fe" points="205.33 201.67 205.25 199.89 202.69 201.28"/><polygon fill="#263156" points="167.71 219.38 193.38 198.79 205.33 201.67 183.38 220.74"/><g><path fill="#ebaec1" d="M168.9,210.91c0,0,5.37-5.93,7.17-6.55c1.79-0.62,7.23-1.36,8.09-1.17c0.86,0.19,1.1,0.33-0.2,1.42
					c-1.57,1.31-1.81,2.26-1.81,2.26s3.74,0.28,5.4-0.03c1.67-0.31,7.26-0.74,8.22-0.31c0.96,0.43,1.02,2.29-0.59,2.78
					c-1.61,0.49-3.34,0.65-3.34,0.65s2.47,0.28,2.63,1.58s-2.44,2.25-3.77,2.66c0,0,1.95,2.72-0.03,3.52s-4.54,0.86-4.54,0.86
					s1.08,0.71,0.49,1.51c-0.59,0.8-1.85,1.24-3.34,1.45c-1.48,0.22-7.37,1.46-11.14,0.78L168.9,210.91z"/><path fill="none" stroke="#263156" stroke-miterlimit="10" stroke-width=".507" d="M191.84,209.95c0,0-7.41,0.77-10.35,1.08"/><path fill="none" stroke="#263156" stroke-miterlimit="10" stroke-width=".507" d="M190.7,214.18c0,0-5.99,0.53-8.15,0.68"/><path fill="none" stroke="#263156" stroke-miterlimit="10" stroke-width=".507" d="M186.13,218.57c0,0-1.7,0.22-2.93,0.19"/><polygon fill="#ebaec1" points="168.9 210.91 162.52 211.93 162.78 228.29 172.1 222.09"/></g><path fill="#e26d33" d="M167.54,226.99c3.78-2.22-1.68-16.9-1.15-16.96c-6.46-0.69-10.1-0.35-17.83,0.92
			c-3.05,0.5-9.69,1.79-9.69,1.79c4.07-9.61,4.63-14.11,4.63-14.11l4.23-12.02l-0.98-16.07l-4.1-5.61c0,0-8.21,0-16.35,18.11
			c-3.26,7.24-5.72,15.48-7.42,23.7c-1.22,5.94-3.72,16.49-2.58,21.51C119.81,243.67,158.42,229.45,167.54,226.99z"/><path fill="none" stroke="#263156" stroke-miterlimit="10" stroke-width=".507" d="M141.01,234.11c10.87-2.01,22.13-5.94,26.53-7.12"/><path fill="none" stroke="#263156" stroke-miterlimit="10" stroke-width=".507" d="M166.38,210.03c-6.46-0.69-10.1-0.35-17.83,0.92c-3.05,0.5-9.69,1.79-9.69,1.79"/><line x1="142.99" x2="147.72" y1="200.4" y2="186.62" fill="none" stroke="#263156" stroke-miterlimit="10" stroke-width=".507"/><g><path fill="#263156" d="M219.45,436.43c0,0,1.05,6.07-6.09,6.79s-12.14,0.34-15.83-0.46c-3.69-0.8-5.76-1.96-9.63-1.63
				c-3.88,0.33-7.84,1.94-9.79-0.03c-1.6-1.61-0.14-6.03-0.14-6.03l21.37,0.1L219.45,436.43z"/><path fill="#e26d33" d="M196.86,423.4c0,0,8.47,6.04,12.64,8.09c4.17,2.06,9.58,0.63,9.95,4.93c0.37,4.31-11.39,3.36-18.28,2.73
				c-6.89-0.63-11.72-3.32-15.33-2.26c-3.61,1.07-7.62-0.65-7.87-1.84c-0.26-1.19,1.12-11.7,2.03-12.7c0,0,0.86,2.12,7.65,2.3
				S196.86,423.4,196.86,423.4z"/><path fill="#fff" d="M204.75,432.14l0.11,0.06c0.2,0.12,0.45,0.05,0.57-0.15l1.29-2.19c0.12-0.2,0.05-0.46-0.14-0.57l-0.11-0.06
				c-0.2-0.12-0.45-0.05-0.57,0.15l-1.29,2.19C204.49,431.77,204.55,432.02,204.75,432.14z"/><path fill="#fff" d="M202.83,430.78l0.11,0.06c0.2,0.12,0.45,0.05,0.57-0.15l1.29-2.19c0.12-0.2,0.05-0.46-0.14-0.57l-0.11-0.06
				c-0.2-0.12-0.45-0.05-0.57,0.15l-1.29,2.19C202.56,430.4,202.63,430.66,202.83,430.78z"/><path fill="#fff" d="M200.58,429.33l0.11,0.06c0.2,0.12,0.45,0.05,0.57-0.15l1.29-2.19c0.12-0.2,0.05-0.46-0.14-0.57l-0.11-0.06
				c-0.2-0.12-0.45-0.05-0.57,0.15l-1.29,2.19C200.32,428.96,200.39,429.22,200.58,429.33z"/><path fill="#fff" d="M198.37,427.91l0.11,0.06c0.2,0.12,0.45,0.05,0.57-0.15l1.29-2.19c0.12-0.2,0.05-0.46-0.14-0.57l-0.11-0.06
				c-0.2-0.12-0.45-0.05-0.57,0.15l-1.29,2.19C198.11,427.53,198.17,427.79,198.37,427.91z"/></g><path fill="#e26d33" d="M180.53,171.34c0,0-2.11-2.68-4.92-6.4c-1.15-1.52-7-6.09-8.23-8.64l-2.14-3.64c0,0-1.94,1.38-3,7.42
			c0,0,7.53,16.69,18.67,18.48L180.53,171.34z"/><path fill="#e26d33" d="M180.53,171.34l6.03-8.77c0,0,3.55,1.23,5.04,3.46s-5.36,11.77-10.7,12.52"/><path fill="none" stroke="#263156" stroke-miterlimit="10" stroke-width=".507" d="M157.77,161.6c0,0,4.93,8.17,13.7,14.04"/><path fill="none" stroke="#263156" stroke-miterlimit="10" stroke-width=".507" d="M194.69,167.58c0,0-4.33,6.1-9.05,8.53"/><circle cx="175.67" cy="178.39" r="1.27" fill="#263156"/><circle cx="181.82" cy="178.54" r="1.27" fill="#263156"/><g><path fill="none" stroke="#fff" stroke-linecap="round" stroke-linejoin="round" stroke-miterlimit="10" stroke-width=".645" d="M175.67,178.39c0,0-1.12,9.86-3.36,14.79"/><circle cx="172.07" cy="194.03" r="1.35" fill="#fff"/></g><g><path fill="none" stroke="#fff" stroke-linecap="round" stroke-linejoin="round" stroke-miterlimit="10" stroke-width=".645" d="M181.67,178.71c0,0,1.12,9.86,3.36,14.79"/><circle cx="185.28" cy="194.35" r="1.35" fill="#fff"/></g><path fill="#ebaec1" d="M225.24,274.98c0,0-0.4,3.1-0.23,4.76c0.17,1.66,0.57,4.59-1.44,4.65c-2.01,0.06-2.53-3.21-2.58-6.03
			s-1.78-5.28-1.78-5.28l4.31-2.53L225.24,274.98z"/><path fill="none" stroke="#263156" stroke-miterlimit="10" stroke-width=".507" d="M138.86,212.74c0,0-8.4,1.38-13.07,4.24"/><path fill="none" stroke="#263156" stroke-miterlimit="10" stroke-width=".507" d="M215.05,222.96c0,0-5.16-1.62-8.86,0.11"/></g><g><ellipse cx="388.69" cy="433.56" fill="#dae4fe" rx="9.22" ry="2.24"/><path fill="#dae4fe" d="M397.58,434.17l-17.83-0.05c-10.16-10.16-3.96-20.89-2.67-23.29c0.23-0.42,0.41-0.88,0.56-1.37
					c0.16-0.5,0.27-1.02,0.36-1.52c0.31-1.72,0.27-3.24,0.27-3.24h20.82c0,0-0.04,1.51,0.27,3.24c0.09,0.5,0.21,1.02,0.36,1.52
					c0.15,0.48,0.34,0.95,0.57,1.37C401.59,413.22,407.74,424,397.58,434.17z"/><path fill="#263156" d="M399.73,409.46c-0.54,0.14-1.18,0.28-1.92,0.4c-2.45,0.4-5.69,0.63-9.13,0.63c-3.44,0-6.68-0.22-9.13-0.63
					c-0.73-0.12-1.36-0.25-1.89-0.39c0.16-0.5,0.27-1.02,0.36-1.52c1.92,0.5,5.69,0.97,10.66,0.97c4.99,0,8.78-0.48,10.69-0.98
					C399.45,408.43,399.57,408.96,399.73,409.46z"/><path fill="#263156" d="M387.63,405.78c-0.44-0.01-0.88-0.01-1.3-0.03c-0.27-0.01-0.53-0.02-0.79-0.03
					c-0.34-0.01-0.67-0.03-0.99-0.04c-0.77-0.04-1.49-0.09-2.16-0.15l-0.42-0.04c-2.84-0.29-3.52-0.67-3.54-0.79
					c0,0,0.09-0.35,2.54-0.67c0.22-0.03,0.45-0.06,0.7-0.08c0.69-0.08,1.47-0.14,2.32-0.19c0.41-0.03,0.83-0.05,1.26-0.06l0.46-0.02
					c0.62-0.02,1.26-0.04,1.92-0.04l1.06-0.01c0.83,0,1.63,0.01,2.4,0.03l0.44,0.01l0.97,0.04c0.84,0.04,1.59,0.09,2.27,0.15
					c0.58,0.05,1.12,0.11,1.6,0.17c2.47,0.32,2.56,0.67,2.56,0.68c0,0-0.1,0.39-2.98,0.73c-0.47,0.06-0.99,0.11-1.54,0.15
					c-0.58,0.05-1.21,0.08-1.87,0.12c-0.32,0.02-0.66,0.03-1,0.04l-0.16,0.01c-0.91,0.03-1.8,0.04-2.72,0.04
					C388.69,405.78,387.98,405.78,387.63,405.78z"/><path fill="#dae4fe" d="M388.69,403.78c0.83,0,1.63,0.01,2.4,0.03l0.11,0l0.34,0.01c0.35,0.01,0.69,0.03,1.02,0.04
						c0.79,0.04,1.54,0.09,2.22,0.15c0.6,0.05,1.13,0.11,1.59,0.17c1.53,0.2,2.11,0.41,2.33,0.52c-0.23,0.12-0.9,0.36-2.75,0.57
						c-0.47,0.05-0.98,0.11-1.53,0.15c-0.58,0.05-1.21,0.08-1.86,0.12c-0.32,0.02-0.65,0.03-1,0.04l-0.14,0.01l-0.07,0
						c-0.84,0.03-1.73,0.04-2.66,0.04c-0.35,0-0.7,0-1.04-0.01c-0.44-0.01-0.88-0.01-1.3-0.03c-0.27-0.01-0.53-0.02-0.79-0.03
						c-0.34-0.01-0.66-0.03-0.98-0.04c-0.77-0.04-1.5-0.09-2.15-0.15c-0.14-0.01-0.28-0.03-0.42-0.04c-2.28-0.23-3.05-0.5-3.31-0.63
						c0.21-0.11,0.79-0.32,2.31-0.52c0.22-0.03,0.45-0.06,0.69-0.08c0.69-0.08,1.46-0.14,2.31-0.19c0.41-0.03,0.83-0.05,1.26-0.06
						l0.45-0.02c0.62-0.02,1.26-0.04,1.91-0.04l0.2,0l0.2,0l0.33,0L388.69,403.78 M388.69,403.46c-0.22,0-0.44,0-0.66,0
						c-0.13,0-0.27,0-0.4,0c-0.66,0.01-1.3,0.02-1.92,0.04c-0.15,0.01-0.31,0.01-0.46,0.02c-0.44,0.02-0.86,0.04-1.27,0.06
						c-0.85,0.05-1.63,0.12-2.32,0.19c-0.25,0.03-0.48,0.05-0.7,0.08c-1.66,0.22-2.67,0.51-2.67,0.83c0,0.38,1.43,0.72,3.68,0.95
						c0.14,0.01,0.28,0.03,0.42,0.04c0.66,0.06,1.39,0.11,2.16,0.15c0.32,0.02,0.65,0.03,0.99,0.04c0.26,0.01,0.53,0.02,0.8,0.03
						c0.43,0.01,0.86,0.02,1.31,0.03c0.34,0,0.69,0.01,1.04,0.01h0.01c0.92,0,1.81-0.01,2.65-0.04c0.08,0,0.15,0,0.22-0.01
						c0.34-0.01,0.67-0.02,1-0.04c0.66-0.03,1.29-0.07,1.87-0.12c0.55-0.04,1.07-0.09,1.54-0.15c1.93-0.22,3.12-0.54,3.12-0.88
						c0-0.32-1.02-0.61-2.7-0.83c-0.48-0.06-1.02-0.12-1.61-0.17c-0.69-0.06-1.43-0.11-2.23-0.15c-0.33-0.01-0.67-0.03-1.02-0.04
						c-0.15,0-0.29-0.01-0.44-0.01C390.32,403.48,389.51,403.46,388.69,403.46L388.69,403.46z"/><g><path fill="#263156" d="M391.56,405.38c-0.07,0-0.15,0.01-0.22,0.01c-0.85,0.03-1.74,0.04-2.65,0.04h-0.01
						c-0.19-0.71-0.41-1.55-0.65-2.47c-0.13-0.51-0.27-1.04-0.41-1.59c-0.23-0.91-0.48-1.89-0.73-2.89
						c-0.55-2.21-1.12-4.59-1.62-6.88c-0.57-2.57-1.06-5.02-1.35-6.98c-0.06-0.44-0.13-0.88-0.18-1.34
						c-0.32-2.54-0.51-5.39-0.59-8.28c-0.08-2.86-0.05-5.77,0.07-8.5c0.11-2.41,0.28-4.67,0.52-6.62c0.05-0.42,0.1-0.82,0.16-1.2
						c0.32-2.16,0.7-4.5,1.1-6.66c0.84-4.56,1.74-8.38,2.26-8.23c0.77,0.23,1.14,4.06,1.43,9.63c0.23,4.36,1.37,13.2,2,19.75
						c0.18,1.82,0.31,3.46,0.38,4.78c0.16,3.21,0.3,11.38,0.39,18.37c0.03,2.47,0.06,4.79,0.08,6.7
						C391.55,403.9,391.55,404.7,391.56,405.38z"/><path fill="#6b9e66" d="M388.08,398.71c0,0,0.04-0.03,0.1-0.07c0.07-0.04,0.16-0.1,0.28-0.15c0.12-0.05,0.26-0.12,0.42-0.16
								c0.16-0.05,0.33-0.09,0.5-0.12c0.17-0.03,0.35-0.04,0.52-0.04c0.17,0,0.32,0.03,0.46,0.04c0.13,0.02,0.24,0.07,0.31,0.1
								c0.07,0.03,0.11,0.05,0.11,0.05s-0.04,0.01-0.12,0.02c-0.07,0-0.18,0.03-0.31,0.04c-0.13,0.01-0.27,0.05-0.42,0.07
								c-0.2,0.03-0.33,0.06-0.48,0.08c-0.16,0.02-0.29,0.04-0.49,0.07c-0.12,0.01-0.31,0.03-0.44,0.05
								c-0.13,0.02-0.24,0.01-0.32,0.02C388.13,398.71,388.08,398.71,388.08,398.71z"/><path fill="#6b9e66" d="M386.25,392.07c0,0,0.07-0.04,0.18-0.12c0.12-0.06,0.28-0.18,0.5-0.26c0.21-0.09,0.46-0.2,0.73-0.29
								c0.27-0.09,0.57-0.15,0.88-0.21c0.3-0.04,0.61-0.08,0.9-0.07c0.29,0,0.57,0.04,0.8,0.08c0.23,0.04,0.42,0.11,0.55,0.17
								c0.12,0.06,0.19,0.1,0.19,0.1s-0.08,0.01-0.21,0.03c-0.13,0-0.32,0.06-0.54,0.07c-0.22,0.02-0.47,0.09-0.74,0.13
								c-0.3,0.05-0.57,0.1-0.85,0.15c-0.28,0.04-0.55,0.08-0.86,0.12c-0.28,0.04-0.54,0.05-0.76,0.08
								c-0.22,0.03-0.42,0.02-0.55,0.03C386.33,392.07,386.25,392.07,386.25,392.07z"/><path fill="#6b9e66" d="M385.72,386.22c0,0,0.07-0.04,0.18-0.12c0.12-0.06,0.28-0.18,0.5-0.26c0.21-0.09,0.46-0.2,0.73-0.28
								c0.27-0.09,0.57-0.15,0.88-0.21c0.3-0.04,0.61-0.08,0.9-0.07c0.29,0,0.57,0.04,0.8,0.08c0.23,0.04,0.42,0.11,0.55,0.17
								c0.12,0.06,0.19,0.1,0.19,0.1s-0.08,0.01-0.21,0.03c-0.13,0-0.32,0.06-0.54,0.07c-0.22,0.02-0.47,0.09-0.74,0.13
								c-0.3,0.05-0.57,0.1-0.85,0.15c-0.28,0.04-0.55,0.08-0.86,0.12c-0.28,0.04-0.54,0.05-0.76,0.08
								c-0.22,0.03-0.42,0.02-0.55,0.03C385.8,386.22,385.72,386.22,385.72,386.22z"/><path fill="#6b9e66" d="M385.28,379.12c0,0,0.07-0.04,0.18-0.12c0.12-0.06,0.28-0.18,0.5-0.26c0.21-0.09,0.46-0.2,0.73-0.28
								c0.27-0.09,0.57-0.15,0.88-0.21c0.3-0.04,0.61-0.08,0.9-0.07c0.29,0,0.57,0.04,0.8,0.08c0.23,0.04,0.42,0.11,0.55,0.17
								c0.12,0.06,0.19,0.1,0.19,0.1s-0.08,0.01-0.21,0.03c-0.13,0-0.32,0.06-0.54,0.07c-0.22,0.02-0.47,0.09-0.74,0.13
								c-0.3,0.05-0.57,0.1-0.85,0.15c-0.28,0.04-0.55,0.08-0.86,0.12c-0.28,0.04-0.54,0.05-0.76,0.08
								c-0.22,0.03-0.42,0.02-0.55,0.03C385.36,379.12,385.28,379.12,385.28,379.12z"/><path fill="#6b9e66" d="M384.7,371.01c0,0,0.07-0.04,0.18-0.12c0.12-0.06,0.28-0.18,0.5-0.26c0.21-0.09,0.46-0.2,0.73-0.28
								c0.27-0.09,0.57-0.15,0.88-0.21c0.3-0.04,0.61-0.08,0.9-0.07c0.29,0,0.57,0.04,0.8,0.08c0.23,0.04,0.42,0.11,0.55,0.17
								c0.12,0.06,0.19,0.1,0.19,0.1s-0.08,0.01-0.21,0.03c-0.13,0-0.32,0.06-0.54,0.07c-0.22,0.02-0.47,0.09-0.74,0.13
								c-0.3,0.05-0.56,0.1-0.85,0.15c-0.28,0.04-0.55,0.08-0.86,0.12c-0.28,0.04-0.54,0.05-0.76,0.08
								c-0.22,0.03-0.42,0.02-0.55,0.03C384.77,371.01,384.7,371.01,384.7,371.01z"/><path fill="#6b9e66" d="M384.82,362.26c0,0,0.05-0.04,0.14-0.11c0.1-0.05,0.23-0.15,0.4-0.23c0.17-0.07,0.37-0.17,0.6-0.24
								c0.22-0.07,0.47-0.12,0.72-0.16c0.25-0.03,0.51-0.05,0.75-0.03c0.24,0.01,0.46,0.07,0.65,0.11c0.19,0.05,0.34,0.13,0.44,0.18
								c0.1,0.06,0.15,0.1,0.15,0.1s-0.06,0.01-0.18,0.02c-0.11-0.01-0.26,0.03-0.44,0.04c-0.18,0.01-0.38,0.06-0.6,0.08
								c-0.26,0.04-0.46,0.07-0.69,0.1c-0.23,0.03-0.44,0.05-0.7,0.09c-0.22,0.03-0.44,0.03-0.62,0.05
								c-0.18,0.02-0.34,0.01-0.45,0.02C384.88,362.26,384.82,362.26,384.82,362.26z"/><g><path fill="#6b9e66" d="M398.17,380.54c-0.01,0.25-0.03,0.49-0.04,0.72c-0.12,1.52-0.41,3.77-0.78,6.32
							c-0.27,1.83-0.58,3.82-0.9,5.81c-0.38,2.38-0.78,4.75-1.14,6.84c-0.19,1.08-0.36,2.08-0.52,2.97
							c-0.14,0.77-0.26,1.46-0.36,2.03c-0.58,0.05-1.21,0.09-1.87,0.12c-0.32,0.02-0.66,0.03-1,0.04c-0.07,0-0.15,0.01-0.22,0.01
							c-0.07-0.64-0.15-1.46-0.25-2.4c-0.13-1.31-0.26-2.89-0.4-4.65c-0.16-2.1-0.3-4.47-0.4-6.96c-0.07-1.89-0.12-3.85-0.12-5.82
							c0-2.47,0.06-4.96,0.22-7.34c0.11-1.62,0.21-3.32,0.29-5.06c0.59-12.13,0.6-26.08,0.98-26.87c0.38-0.8,3.8,2.41,4.31,7.22
							c0.25,2.38,0.9,7.61,1.44,13.06c0.19,1.98,0.37,4,0.51,5.92C398.15,375.6,398.27,378.46,398.17,380.54z"/><path fill="#263156" d="M390.86,396.33c0,0,0.07-0.03,0.2-0.07c0.13-0.03,0.32-0.1,0.55-0.13c0.23-0.03,0.49-0.08,0.78-0.09
							c0.29-0.02,0.59-0.01,0.9,0.02c0.31,0.03,0.61,0.08,0.89,0.15c0.28,0.07,0.54,0.19,0.75,0.28c0.22,0.1,0.38,0.22,0.49,0.3
							c0.11,0.09,0.16,0.14,0.16,0.14s-0.08-0.01-0.21-0.02c-0.13-0.03-0.32-0.03-0.54-0.06c-0.22-0.03-0.48-0.03-0.75-0.06
							c-0.3-0.03-0.57-0.05-0.86-0.07c-0.29-0.03-0.56-0.06-0.86-0.09c-0.28-0.03-0.54-0.09-0.76-0.11
							c-0.22-0.03-0.41-0.09-0.54-0.11C390.94,396.35,390.86,396.33,390.86,396.33z"/><path fill="#263156" d="M391.37,387.03c0,0,0.07-0.03,0.2-0.07c0.13-0.03,0.32-0.1,0.55-0.13c0.23-0.03,0.49-0.08,0.78-0.09
							c0.29-0.02,0.59-0.01,0.9,0.02c0.31,0.03,0.61,0.08,0.89,0.15c0.28,0.07,0.54,0.19,0.75,0.28c0.22,0.1,0.38,0.22,0.49,0.3
							c0.11,0.09,0.16,0.14,0.16,0.14s-0.08-0.01-0.21-0.02c-0.13-0.03-0.32-0.03-0.54-0.06c-0.22-0.03-0.48-0.03-0.75-0.06
							c-0.3-0.03-0.57-0.05-0.86-0.07c-0.29-0.03-0.56-0.06-0.86-0.09c-0.28-0.03-0.54-0.09-0.76-0.11
							c-0.22-0.03-0.41-0.09-0.54-0.11C391.45,387.05,391.37,387.03,391.37,387.03z"/><path fill="#263156" d="M391.96,378.42c0,0,0.07-0.03,0.2-0.07c0.13-0.03,0.32-0.1,0.55-0.13c0.23-0.03,0.49-0.08,0.78-0.09
							c0.29-0.02,0.59-0.01,0.9,0.02c0.31,0.03,0.61,0.08,0.89,0.15c0.28,0.07,0.54,0.19,0.75,0.28c0.22,0.1,0.38,0.22,0.49,0.3
							c0.1,0.09,0.16,0.14,0.16,0.14s-0.08-0.01-0.21-0.02c-0.13-0.03-0.32-0.03-0.54-0.06c-0.22-0.03-0.48-0.03-0.75-0.06
							c-0.3-0.03-0.57-0.05-0.86-0.07c-0.29-0.03-0.56-0.06-0.86-0.09c-0.28-0.03-0.54-0.09-0.76-0.11
							c-0.22-0.03-0.41-0.09-0.54-0.11C392.04,378.44,391.96,378.42,391.96,378.42z"/><path fill="#263156" d="M392.06,370.26c0,0,0.07-0.04,0.19-0.11c0.12-0.05,0.3-0.15,0.52-0.22c0.22-0.07,0.47-0.16,0.75-0.22
							c0.28-0.07,0.58-0.1,0.89-0.13c0.31-0.02,0.62-0.02,0.91,0c0.29,0.02,0.56,0.09,0.79,0.15c0.23,0.06,0.41,0.15,0.53,0.21
							c0.12,0.07,0.19,0.11,0.19,0.11s-0.08,0-0.22,0.01c-0.13-0.01-0.32,0.03-0.54,0.03c-0.22,0.01-0.48,0.05-0.75,0.06
							c-0.3,0.03-0.57,0.05-0.86,0.07c-0.29,0.02-0.56,0.03-0.86,0.05c-0.28,0.02-0.54,0-0.77,0.01c-0.22,0.01-0.42-0.02-0.55-0.02
							C392.14,370.27,392.06,370.26,392.06,370.26z"/><path fill="#263156" d="M392.17,362.2c0,0,0.06-0.03,0.16-0.09c0.1-0.05,0.25-0.14,0.43-0.2c0.18-0.06,0.4-0.14,0.63-0.19
							c0.24-0.06,0.49-0.09,0.75-0.11c0.26-0.01,0.52-0.01,0.77,0.03c0.25,0.03,0.47,0.1,0.66,0.16c0.19,0.06,0.33,0.15,0.43,0.22
							c0.09,0.07,0.15,0.11,0.15,0.11s-0.07,0-0.18,0c-0.11-0.02-0.27,0.01-0.45,0c-0.18,0-0.4,0.03-0.62,0.03
							c-0.26,0.02-0.48,0.03-0.71,0.04c-0.24,0.01-0.46,0.02-0.72,0.03c-0.23,0.01-0.45,0-0.64,0c-0.19,0.01-0.35-0.02-0.46-0.02
							C392.24,362.2,392.17,362.2,392.17,362.2z"/><path fill="#263156" d="M392,357.38c0,0,0.06-0.03,0.16-0.09c0.1-0.05,0.25-0.14,0.43-0.2c0.18-0.06,0.4-0.14,0.63-0.19
							c0.24-0.06,0.49-0.09,0.75-0.11c0.26-0.01,0.52-0.01,0.77,0.03c0.25,0.03,0.47,0.1,0.66,0.16c0.19,0.06,0.34,0.15,0.43,0.22
							c0.09,0.07,0.15,0.11,0.15,0.11s-0.07,0-0.18,0c-0.11-0.02-0.27,0.01-0.45,0c-0.18,0-0.4,0.03-0.62,0.03
							c-0.26,0.02-0.48,0.03-0.71,0.04c-0.24,0.01-0.46,0.02-0.72,0.03c-0.23,0.01-0.45,0-0.64,0c-0.19,0.01-0.35-0.02-0.47-0.02
							C392.07,357.39,392,357.38,392,357.38z"/></g><g><path fill="#6b9e66" d="M384.54,405.33c-0.77-0.04-1.5-0.09-2.16-0.15c-0.14-0.01-0.28-0.03-0.42-0.04
							c-0.32-0.56-0.66-1.16-1.01-1.77c-3.09-5.45-7.1-12.65-8.65-16.08c-2.67-5.9-6.25-22.13-7.41-26.83
							c-1.16-4.7,0.96-8.88,1.59-8.26c0.46,0.46,3.18,7.75,6.46,16.04c1.5,3.8,3.12,7.81,4.69,11.47c0.3,0.71,0.6,1.4,0.9,2.08
							c0.58,1.32,1.14,2.68,1.68,4.07c0.05,0.14,0.1,0.27,0.16,0.41c0.71,1.86,1.38,3.75,2,5.6c0.01,0.04,0.03,0.08,0.04,0.12
							c0.75,2.24,1.42,4.43,2.02,6.47c0.15,0.51,0.29,1.02,0.43,1.51c0.31,1.07,0.58,2.09,0.84,3.03c0.23,0.87,0.44,1.67,0.63,2.39
							c-0.27-0.01-0.54-0.02-0.8-0.03C385.19,405.36,384.86,405.35,384.54,405.33z"/><path fill="#263156" d="M384.26,398.99c0,0-0.06,0.04-0.18,0.12c-0.12,0.06-0.27,0.18-0.47,0.29c-0.2,0.1-0.43,0.24-0.67,0.37
							c-0.28,0.13-0.52,0.25-0.78,0.38c-0.26,0.12-0.5,0.23-0.78,0.36c-0.25,0.12-0.49,0.21-0.68,0.31
							c-0.19,0.11-0.38,0.17-0.48,0.24c-0.12,0.06-0.19,0.1-0.19,0.1s0.04-0.07,0.11-0.19c0.08-0.12,0.19-0.28,0.36-0.45
							c0.17-0.16,0.37-0.35,0.61-0.51c0.24-0.17,0.51-0.31,0.79-0.45c0.28-0.13,0.57-0.24,0.84-0.32c0.27-0.09,0.54-0.13,0.77-0.18
							c0.22-0.05,0.42-0.05,0.56-0.06C384.18,398.99,384.26,398.99,384.26,398.99z"/><path fill="#263156" d="M380.62,390.43c0,0-0.06,0.04-0.18,0.12c-0.12,0.06-0.27,0.18-0.47,0.29c-0.2,0.1-0.43,0.24-0.67,0.37
							c-0.28,0.13-0.52,0.25-0.78,0.38c-0.26,0.12-0.5,0.23-0.78,0.36c-0.25,0.12-0.49,0.21-0.68,0.31
							c-0.19,0.11-0.38,0.17-0.48,0.24c-0.12,0.06-0.19,0.1-0.19,0.1s0.04-0.07,0.11-0.19c0.08-0.12,0.19-0.28,0.36-0.45
							c0.17-0.16,0.37-0.35,0.61-0.51c0.24-0.17,0.51-0.31,0.79-0.45c0.28-0.13,0.57-0.24,0.84-0.32c0.27-0.09,0.54-0.13,0.77-0.18
							c0.22-0.05,0.42-0.05,0.56-0.06C380.54,390.43,380.62,390.43,380.62,390.43z"/><path fill="#263156" d="M377.14,382.52c0,0-0.06,0.04-0.18,0.12c-0.12,0.06-0.27,0.18-0.47,0.29c-0.2,0.1-0.43,0.24-0.67,0.37
							c-0.28,0.13-0.52,0.25-0.78,0.38c-0.26,0.12-0.5,0.23-0.78,0.36c-0.25,0.12-0.49,0.21-0.68,0.31
							c-0.19,0.11-0.38,0.17-0.48,0.24c-0.12,0.06-0.19,0.1-0.19,0.1s0.04-0.07,0.11-0.19c0.08-0.12,0.19-0.28,0.36-0.45
							c0.17-0.16,0.37-0.35,0.61-0.51c0.24-0.17,0.51-0.31,0.79-0.45c0.28-0.13,0.57-0.24,0.84-0.32c0.27-0.09,0.54-0.13,0.77-0.18
							c0.22-0.05,0.42-0.05,0.56-0.06C377.06,382.52,377.14,382.52,377.14,382.52z"/><path fill="#263156" d="M374.27,374.88c0,0-0.07,0.03-0.2,0.09c-0.13,0.04-0.3,0.14-0.52,0.2c-0.22,0.07-0.46,0.17-0.73,0.25
							c-0.29,0.09-0.55,0.16-0.83,0.24c-0.28,0.07-0.53,0.14-0.83,0.22c-0.26,0.08-0.52,0.12-0.73,0.19c-0.2,0.07-0.4,0.1-0.52,0.16
							c-0.13,0.04-0.21,0.06-0.21,0.06s0.05-0.06,0.14-0.17c0.09-0.1,0.23-0.25,0.43-0.38c0.2-0.13,0.42-0.29,0.69-0.4
							c0.26-0.12,0.56-0.22,0.85-0.31c0.3-0.08,0.6-0.14,0.88-0.18c0.28-0.04,0.56-0.04,0.79-0.05c0.23-0.01,0.43,0.02,0.56,0.03
							C374.19,374.87,374.27,374.88,374.27,374.88z"/><path fill="#263156" d="M371.42,367.34c0,0-0.06,0.03-0.16,0.08c-0.11,0.04-0.25,0.12-0.43,0.18c-0.18,0.06-0.38,0.15-0.6,0.22
							c-0.25,0.08-0.46,0.14-0.69,0.22c-0.23,0.07-0.43,0.13-0.69,0.2c-0.22,0.07-0.43,0.12-0.6,0.18c-0.17,0.07-0.33,0.1-0.43,0.15
							c-0.11,0.04-0.17,0.06-0.17,0.06s0.04-0.06,0.1-0.15c0.07-0.09,0.18-0.23,0.33-0.35c0.16-0.12,0.34-0.26,0.57-0.37
							c0.22-0.11,0.46-0.21,0.71-0.28c0.25-0.07,0.5-0.13,0.74-0.16c0.24-0.04,0.47-0.03,0.66-0.04c0.19-0.01,0.36,0.03,0.47,0.04
							C371.36,367.33,371.42,367.34,371.42,367.34z"/><path fill="#263156" d="M369.95,362.75c0,0-0.06,0.03-0.16,0.08c-0.11,0.04-0.25,0.12-0.43,0.18c-0.18,0.06-0.38,0.15-0.6,0.22
							c-0.25,0.08-0.46,0.14-0.69,0.22c-0.23,0.07-0.43,0.13-0.69,0.2c-0.22,0.07-0.43,0.12-0.6,0.18c-0.17,0.07-0.33,0.1-0.43,0.15
							c-0.11,0.04-0.17,0.06-0.17,0.06s0.04-0.05,0.1-0.15c0.07-0.09,0.18-0.23,0.33-0.35c0.16-0.12,0.34-0.26,0.57-0.37
							c0.22-0.11,0.46-0.21,0.71-0.28c0.25-0.07,0.5-0.13,0.74-0.16c0.24-0.04,0.47-0.03,0.66-0.04c0.19-0.01,0.36,0.03,0.47,0.04
							C369.88,362.74,369.95,362.75,369.95,362.75z"/></g><g><path fill="#263156" d="M405.61,356.46c-1.11,5.46-2.61,18.38-3.84,24.34c-0.8,3.92-3.58,15.26-5.38,22.56
						c-0.15,0.6-0.29,1.17-0.42,1.71c-0.47,0.06-0.99,0.11-1.54,0.15c-0.58,0.05-1.21,0.09-1.87,0.12c0-0.7,0-1.47,0-2.3
						c0-2.02,0.02-4.35,0.07-6.72c0.07-3.26,0.19-6.6,0.4-9.3c0.04-0.55,0.09-1.07,0.14-1.55c0.23-2.16,0.62-4.55,1.12-7.02
						c0.58-2.82,1.3-5.74,2.09-8.51c0.33-1.16,0.67-2.29,1.02-3.38c0.74-2.33,1.51-4.46,2.25-6.22c2.63-6.25,6.29-13.99,6.98-13.58
						C407.33,347.19,406.72,351,405.61,356.46z"/><path fill="#6b9e66" d="M393.68,400.16c0,0,0.04-0.02,0.12-0.04c0.07-0.02,0.18-0.06,0.31-0.08c0.13-0.02,0.28-0.05,0.45-0.05
								c0.16-0.01,0.34,0,0.51,0.01c0.17,0.02,0.35,0.05,0.51,0.09c0.16,0.04,0.31,0.11,0.43,0.16c0.12,0.06,0.22,0.12,0.28,0.17
								c0.06,0.05,0.09,0.08,0.09,0.08s-0.04,0-0.12-0.01c-0.07-0.02-0.19-0.02-0.31-0.04c-0.12-0.02-0.27-0.02-0.43-0.04
								c-0.2-0.02-0.33-0.03-0.49-0.04c-0.16-0.02-0.29-0.03-0.49-0.05c-0.12-0.02-0.31-0.05-0.43-0.07
								c-0.13-0.02-0.23-0.05-0.31-0.06C393.72,400.18,393.68,400.16,393.68,400.16z"/><path fill="#6b9e66" d="M393.57,393.28c0,0,0.07-0.03,0.2-0.07c0.13-0.03,0.32-0.1,0.55-0.13c0.23-0.03,0.49-0.08,0.78-0.09
								c0.29-0.02,0.59-0.01,0.9,0.02c0.31,0.03,0.61,0.08,0.89,0.15c0.28,0.07,0.54,0.19,0.75,0.28c0.22,0.1,0.38,0.22,0.49,0.3
								c0.11,0.09,0.16,0.14,0.16,0.14s-0.08-0.01-0.21-0.02c-0.13-0.03-0.32-0.03-0.54-0.06c-0.22-0.03-0.48-0.03-0.75-0.06
								c-0.3-0.03-0.57-0.05-0.86-0.07c-0.29-0.03-0.56-0.06-0.86-0.09c-0.28-0.03-0.54-0.09-0.76-0.11
								c-0.22-0.03-0.41-0.09-0.54-0.11C393.64,393.3,393.57,393.28,393.57,393.28z"/><path fill="#6b9e66" d="M394.52,387.48c0,0,0.07-0.03,0.2-0.07c0.13-0.03,0.32-0.1,0.55-0.13c0.23-0.03,0.49-0.08,0.78-0.09
								c0.29-0.02,0.59-0.01,0.9,0.02c0.31,0.03,0.61,0.08,0.89,0.15c0.28,0.07,0.54,0.19,0.75,0.28c0.22,0.1,0.38,0.22,0.49,0.3
								c0.11,0.09,0.16,0.14,0.16,0.14s-0.08-0.01-0.21-0.02c-0.13-0.03-0.32-0.03-0.54-0.06c-0.22-0.03-0.48-0.03-0.75-0.06
								c-0.3-0.03-0.57-0.05-0.86-0.07c-0.29-0.03-0.56-0.06-0.86-0.09c-0.28-0.03-0.53-0.09-0.76-0.11
								c-0.22-0.03-0.41-0.09-0.54-0.11C394.6,387.5,394.52,387.48,394.52,387.48z"/><path fill="#6b9e66" d="M395.88,380.5c0,0,0.07-0.03,0.2-0.07c0.13-0.03,0.32-0.1,0.55-0.13c0.23-0.03,0.49-0.08,0.78-0.09
								c0.29-0.02,0.59-0.01,0.9,0.02c0.31,0.03,0.61,0.08,0.89,0.15c0.28,0.07,0.54,0.19,0.75,0.28c0.22,0.1,0.38,0.22,0.49,0.3
								c0.11,0.09,0.16,0.14,0.16,0.14s-0.08-0.01-0.21-0.02c-0.13-0.03-0.32-0.03-0.54-0.06c-0.22-0.03-0.48-0.03-0.75-0.06
								c-0.3-0.03-0.57-0.05-0.86-0.07c-0.29-0.03-0.56-0.06-0.86-0.09c-0.28-0.03-0.53-0.09-0.76-0.11
								c-0.22-0.03-0.41-0.09-0.54-0.11C395.95,380.52,395.88,380.5,395.88,380.5z"/><path fill="#6b9e66" d="M397.34,372.5c0,0,0.07-0.03,0.2-0.07c0.13-0.03,0.32-0.1,0.55-0.13c0.23-0.03,0.49-0.08,0.78-0.09
								c0.29-0.02,0.59-0.01,0.9,0.02c0.31,0.03,0.61,0.08,0.89,0.15c0.28,0.07,0.54,0.19,0.75,0.28c0.22,0.1,0.38,0.22,0.49,0.3
								c0.11,0.09,0.16,0.14,0.16,0.14s-0.08-0.01-0.21-0.02c-0.13-0.03-0.32-0.03-0.54-0.06c-0.22-0.03-0.48-0.03-0.75-0.06
								c-0.3-0.03-0.57-0.05-0.86-0.07c-0.29-0.03-0.56-0.06-0.86-0.09c-0.28-0.03-0.54-0.09-0.76-0.11
								c-0.22-0.03-0.41-0.09-0.54-0.11C397.42,372.52,397.34,372.5,397.34,372.5z"/><path fill="#6b9e66" d="M399.65,364.06c0,0,0.06-0.02,0.17-0.07c0.11-0.03,0.26-0.09,0.45-0.12c0.19-0.03,0.41-0.07,0.64-0.08
								c0.24-0.01,0.49,0,0.74,0.02c0.25,0.03,0.5,0.08,0.73,0.15c0.23,0.07,0.43,0.18,0.61,0.27c0.17,0.1,0.29,0.21,0.38,0.28
								c0.08,0.08,0.12,0.13,0.12,0.13s-0.06-0.01-0.18-0.03c-0.1-0.03-0.26-0.03-0.43-0.07c-0.18-0.03-0.39-0.04-0.6-0.07
								c-0.26-0.03-0.46-0.05-0.69-0.08c-0.23-0.03-0.44-0.06-0.7-0.09c-0.22-0.03-0.43-0.08-0.62-0.11
								c-0.18-0.02-0.34-0.08-0.44-0.1C399.71,364.07,399.65,364.06,399.65,364.06z"/></g><g><path fill="#263156" d="M385.53,405.37c-0.34-0.01-0.67-0.03-0.99-0.04c-0.77-0.04-1.5-0.09-2.16-0.15
						c-0.22-0.57-0.47-1.21-0.73-1.9c-0.32-0.83-0.66-1.72-1.01-2.66c-1.04-2.76-2.18-5.92-3.17-8.86
						c-0.73-2.18-1.38-4.23-1.83-5.93c-0.21-0.8-0.41-1.64-0.61-2.51c-0.57-2.59-1.05-5.45-1.42-8.34
						c-0.29-2.27-0.52-4.55-0.67-6.73c-0.22-3.05-0.3-5.89-0.22-8.2c0.23-6.77,0.88-15.31,1.67-15.17c0.79,0.14,1.58,3.91,2.5,9.41
						c0.48,2.88,1.58,7.69,2.67,12.49c0.68,3,1.35,6,1.86,8.51c0.23,1.15,0.43,2.2,0.58,3.1c0.19,1.14,0.44,2.9,0.73,5.02
						c0.33,2.45,0.71,5.36,1.09,8.32c0.29,2.28,0.58,4.57,0.85,6.7c0.07,0.53,0.13,1.04,0.19,1.55c0.14,1.09,0.26,2.12,0.38,3.05
						C385.35,403.9,385.45,404.69,385.53,405.37z"/><path fill="#6b9e66" d="M381.35,399.37c0,0,0.03-0.03,0.09-0.08c0.06-0.04,0.15-0.12,0.26-0.18c0.12-0.06,0.25-0.14,0.4-0.21
								c0.15-0.07,0.32-0.12,0.48-0.17c0.17-0.04,0.34-0.08,0.51-0.1c0.17-0.02,0.32-0.01,0.46-0.01c0.13,0.01,0.25,0.04,0.32,0.06
								c0.07,0.03,0.12,0.04,0.12,0.04s-0.04,0.01-0.12,0.03c-0.07,0.01-0.18,0.05-0.3,0.08c-0.12,0.03-0.26,0.08-0.41,0.12
								c-0.19,0.06-0.32,0.09-0.47,0.14c-0.15,0.04-0.28,0.07-0.48,0.13c-0.12,0.03-0.31,0.07-0.43,0.09
								c-0.12,0.03-0.24,0.04-0.31,0.05C381.4,399.37,381.35,399.37,381.35,399.37z"/><path fill="#6b9e66" d="M378.79,392.98c0,0,0.06-0.05,0.16-0.14c0.11-0.08,0.26-0.21,0.46-0.32c0.2-0.11,0.43-0.25,0.7-0.37
								c0.26-0.12,0.55-0.22,0.85-0.31c0.3-0.08,0.6-0.14,0.89-0.17c0.29-0.04,0.57-0.02,0.8-0.01c0.24,0.01,0.43,0.07,0.56,0.11
								c0.13,0.05,0.2,0.07,0.2,0.07s-0.08,0.02-0.21,0.05c-0.13,0.01-0.31,0.09-0.53,0.13c-0.22,0.05-0.46,0.14-0.72,0.21
								c-0.29,0.08-0.55,0.16-0.83,0.24c-0.28,0.07-0.54,0.14-0.84,0.22c-0.27,0.07-0.53,0.11-0.75,0.16
								c-0.22,0.05-0.42,0.07-0.55,0.09C378.87,392.98,378.79,392.98,378.79,392.98z"/><path fill="#6b9e66" d="M377.61,387.22c0,0,0.06-0.05,0.16-0.14c0.11-0.08,0.26-0.21,0.46-0.32c0.2-0.11,0.43-0.25,0.7-0.37
								c0.26-0.12,0.55-0.22,0.85-0.31c0.3-0.08,0.6-0.14,0.89-0.17c0.29-0.04,0.57-0.02,0.8-0.01c0.24,0.01,0.43,0.07,0.56,0.11
								c0.13,0.05,0.2,0.07,0.2,0.07s-0.08,0.02-0.21,0.05c-0.13,0.01-0.31,0.09-0.53,0.13c-0.22,0.05-0.46,0.14-0.72,0.21
								c-0.29,0.08-0.55,0.16-0.83,0.24c-0.28,0.07-0.54,0.14-0.84,0.22c-0.27,0.07-0.53,0.11-0.75,0.16
								c-0.22,0.05-0.42,0.07-0.55,0.09C377.69,387.22,377.61,387.22,377.61,387.22z"/><path fill="#6b9e66" d="M376.38,380.22c0,0,0.06-0.05,0.16-0.14c0.11-0.08,0.26-0.21,0.46-0.32c0.2-0.11,0.43-0.25,0.7-0.37
								c0.26-0.12,0.55-0.22,0.85-0.31c0.3-0.08,0.6-0.14,0.89-0.17c0.29-0.04,0.57-0.02,0.8-0.01c0.24,0.01,0.43,0.07,0.56,0.11
								c0.13,0.05,0.2,0.07,0.2,0.07s-0.08,0.02-0.21,0.05c-0.13,0.01-0.31,0.09-0.53,0.13c-0.22,0.05-0.46,0.14-0.72,0.21
								c-0.29,0.09-0.55,0.16-0.83,0.24c-0.28,0.07-0.54,0.14-0.84,0.22c-0.27,0.07-0.53,0.11-0.75,0.16
								c-0.22,0.05-0.42,0.07-0.55,0.09C376.46,380.21,376.38,380.22,376.38,380.22z"/><path fill="#6b9e66" d="M374.89,372.23c0,0,0.06-0.05,0.16-0.14c0.11-0.08,0.26-0.21,0.46-0.32c0.2-0.11,0.43-0.25,0.7-0.37
								c0.26-0.12,0.55-0.22,0.85-0.31c0.3-0.08,0.6-0.14,0.89-0.17c0.29-0.04,0.57-0.02,0.8-0.01c0.24,0.01,0.43,0.07,0.56,0.11
								c0.13,0.05,0.2,0.07,0.2,0.07s-0.08,0.02-0.21,0.05c-0.13,0.01-0.31,0.09-0.53,0.13c-0.22,0.05-0.46,0.14-0.72,0.21
								c-0.29,0.09-0.55,0.16-0.83,0.24c-0.28,0.07-0.54,0.14-0.84,0.22c-0.27,0.07-0.53,0.11-0.75,0.16
								c-0.22,0.05-0.42,0.07-0.55,0.09C374.97,372.22,374.89,372.23,374.89,372.23z"/><path fill="#6b9e66" d="M374.03,363.51c0,0,0.05-0.04,0.13-0.12c0.09-0.07,0.21-0.18,0.37-0.27c0.16-0.09,0.35-0.21,0.57-0.3
								c0.22-0.1,0.46-0.17,0.7-0.24c0.25-0.06,0.5-0.1,0.74-0.12c0.24-0.02,0.47,0.01,0.66,0.03c0.19,0.03,0.35,0.09,0.45,0.13
								c0.1,0.05,0.16,0.08,0.16,0.08s-0.06,0.01-0.17,0.04c-0.11,0-0.26,0.06-0.43,0.09c-0.18,0.03-0.38,0.1-0.59,0.15
								c-0.25,0.07-0.45,0.12-0.67,0.18c-0.22,0.05-0.43,0.1-0.68,0.16c-0.22,0.05-0.43,0.08-0.61,0.12
								c-0.18,0.04-0.34,0.05-0.45,0.07C374.1,363.51,374.03,363.51,374.03,363.51z"/></g><g><path fill="#6b9e66" d="M387.63,405.43c-0.44-0.01-0.88-0.01-1.31-0.03c-0.27-0.01-0.54-0.02-0.8-0.03
							c-0.34-0.01-0.67-0.03-0.99-0.04c-0.17-0.67-0.36-1.43-0.57-2.24c-0.28-1.13-0.59-2.38-0.91-3.69
							c-0.05-0.19-0.09-0.38-0.14-0.57c-0.52-2.18-1.06-4.52-1.54-6.75c-0.44-2.07-0.83-4.06-1.11-5.78
							c-0.02-0.15-0.05-0.29-0.07-0.43c-0.03-0.21-0.06-0.41-0.09-0.61c-0.26-1.86-0.45-3.92-0.57-6.08
							c-0.15-2.63-0.19-5.4-0.14-8.1c0.02-1.46,0.08-2.91,0.15-4.3c0.15-2.78,0.39-5.35,0.72-7.46c1.03-6.7,2.69-15.1,3.46-14.87
							c0.67,0.2,1.01,3.13,1.26,7.55c0.04,0.66,0.07,1.36,0.1,2.09c0.09,1.94,0.35,4.77,0.67,7.9c0.28,2.75,0.6,5.74,0.88,8.53
							c0.31,3.12,0.57,6,0.67,8.09c0,0.01,0,0.01,0,0.02c0.07,1.5,0.12,4.09,0.16,7.13c0.03,1.86,0.05,3.9,0.06,5.96
							c0.03,3.35,0.05,6.77,0.06,9.64c0,0.55,0.01,1.09,0.01,1.6C387.63,403.87,387.63,404.7,387.63,405.43z"/><path fill="#263156" d="M383.55,398.66c0,0,0.05-0.03,0.14-0.09c0.09-0.05,0.22-0.13,0.39-0.19c0.17-0.06,0.36-0.14,0.57-0.19
							c0.21-0.06,0.45-0.09,0.68-0.11c0.24-0.01,0.48-0.01,0.7,0.02c0.22,0.03,0.43,0.1,0.6,0.15c0.17,0.06,0.3,0.15,0.39,0.21
							c0.08,0.07,0.13,0.1,0.13,0.1s-0.06,0-0.17,0c-0.1-0.02-0.25,0.01-0.41,0c-0.17,0-0.36,0.02-0.56,0.03
							c-0.24,0.02-0.43,0.03-0.64,0.05c-0.21,0.01-0.41,0.02-0.65,0.04c-0.17,0-0.42,0.01-0.58,0.01c-0.17,0.01-0.32-0.01-0.42-0.01
							C383.61,398.67,383.55,398.66,383.55,398.66z"/><path fill="#263156" d="M381.26,360.18c0,0,0.05-0.03,0.14-0.09c0.09-0.05,0.22-0.13,0.39-0.19c0.17-0.06,0.36-0.14,0.57-0.19
							c0.21-0.06,0.45-0.09,0.68-0.11c0.24-0.01,0.48-0.01,0.7,0.02c0.22,0.03,0.43,0.1,0.6,0.15c0.17,0.06,0.3,0.15,0.39,0.21
							c0.08,0.07,0.13,0.1,0.13,0.1s-0.06,0-0.17,0c-0.1-0.02-0.25,0.01-0.41,0c-0.17,0-0.36,0.02-0.56,0.03
							c-0.24,0.02-0.43,0.03-0.64,0.05c-0.21,0.01-0.41,0.02-0.65,0.04c-0.17,0-0.42,0.01-0.58,0.01c-0.17,0.01-0.32-0.01-0.42-0.01
							C381.32,360.19,381.26,360.18,381.26,360.18z"/><path fill="#263156" d="M382.24,392.05c0,0,0.07-0.04,0.18-0.11c0.12-0.06,0.28-0.16,0.5-0.23c0.21-0.07,0.46-0.17,0.73-0.23
							c0.27-0.07,0.57-0.11,0.86-0.15c0.3-0.02,0.6-0.04,0.88-0.01c0.28,0.02,0.55,0.08,0.77,0.13c0.22,0.06,0.4,0.14,0.52,0.2
							c0.12,0.07,0.18,0.11,0.18,0.11s-0.08,0.01-0.21,0.02c-0.13-0.01-0.31,0.03-0.53,0.04c-0.21,0.01-0.46,0.05-0.72,0.08
							c-0.3,0.03-0.55,0.06-0.83,0.09c-0.28,0.02-0.54,0.04-0.84,0.07c-0.27,0.02-0.53,0.01-0.74,0.03c-0.22,0.01-0.41-0.01-0.54,0
							C382.32,392.05,382.24,392.05,382.24,392.05z"/><path fill="#263156" d="M380.92,366.9c0,0,0.07-0.04,0.18-0.11c0.12-0.06,0.28-0.16,0.5-0.23c0.21-0.07,0.46-0.17,0.73-0.23
							c0.27-0.07,0.57-0.11,0.86-0.15c0.3-0.02,0.6-0.03,0.88-0.01c0.28,0.02,0.55,0.08,0.77,0.13c0.22,0.06,0.4,0.14,0.52,0.2
							c0.12,0.07,0.18,0.11,0.18,0.11s-0.08,0.01-0.21,0.02c-0.13-0.01-0.31,0.03-0.53,0.04c-0.21,0.01-0.46,0.05-0.72,0.08
							c-0.3,0.03-0.55,0.06-0.83,0.09c-0.28,0.02-0.54,0.04-0.84,0.07c-0.27,0.02-0.53,0.01-0.74,0.03c-0.22,0.01-0.41-0.01-0.54,0
							C381,366.9,380.92,366.9,380.92,366.9z"/><path fill="#263156" d="M380.97,383.77c0,0,0.08-0.04,0.22-0.12c0.15-0.06,0.35-0.18,0.61-0.26c0.26-0.08,0.56-0.2,0.89-0.28
							c0.33-0.08,0.69-0.14,1.05-0.19c0.36-0.04,0.72-0.06,1.07-0.05c0.34,0,0.66,0.07,0.94,0.11c0.27,0.05,0.49,0.13,0.64,0.19
							c0.15,0.07,0.23,0.11,0.23,0.11s-0.09,0.01-0.25,0.03c-0.15,0-0.38,0.06-0.64,0.07c-0.26,0.02-0.56,0.08-0.89,0.12
							c-0.35,0.04-0.68,0.09-1.02,0.13c-0.34,0.03-0.67,0.07-1.03,0.1c-0.33,0.03-0.64,0.03-0.91,0.05c-0.27,0.02-0.5,0-0.65,0.01
							C381.06,383.77,380.97,383.77,380.97,383.77z"/><path fill="#263156" d="M380.77,375.44c0,0,0.08-0.04,0.22-0.12c0.15-0.06,0.35-0.18,0.61-0.26c0.26-0.08,0.56-0.2,0.89-0.28
							c0.33-0.08,0.69-0.14,1.05-0.19c0.36-0.04,0.72-0.06,1.07-0.05c0.34,0,0.66,0.07,0.94,0.11c0.27,0.05,0.49,0.13,0.64,0.19
							c0.15,0.07,0.23,0.11,0.23,0.11s-0.09,0.01-0.25,0.03c-0.16,0-0.38,0.05-0.64,0.07c-0.26,0.02-0.56,0.08-0.89,0.12
							c-0.35,0.04-0.68,0.09-1.02,0.13c-0.34,0.03-0.67,0.07-1.03,0.1c-0.33,0.03-0.64,0.03-0.91,0.05c-0.27,0.02-0.5,0-0.65,0.01
							C380.87,375.44,380.77,375.44,380.77,375.44z"/></g></g><g><path fill="#263156" d="M388.63,419.79c0,0-0.01,0-0.01,0c-0.58-0.01-1.09-0.39-1.59-0.76c-0.38-0.29-0.78-0.58-1.11-0.6
				c-0.39-0.01-0.83,0.27-1.26,0.54c-0.49,0.31-1,0.64-1.53,0.6c-0.61-0.04-1.14-0.48-1.6-0.87c-0.35-0.3-0.72-0.6-1.01-0.63
				c-0.45-0.05-0.94,0.23-1.42,0.5c-0.5,0.28-0.96,0.54-1.43,0.48c-1.05-0.13-1.39-0.63-1.66-1.03c-0.21-0.31-0.37-0.54-0.86-0.63
				c-0.18-0.03-0.29-0.2-0.26-0.37c0.03-0.17,0.2-0.29,0.37-0.26c0.76,0.13,1.05,0.56,1.28,0.9c0.25,0.37,0.45,0.66,1.21,0.75
				c0.26,0.02,0.65-0.19,1.04-0.4c0.54-0.3,1.15-0.64,1.79-0.58c0.5,0.05,0.94,0.42,1.37,0.78c0.41,0.34,0.83,0.69,1.23,0.72
				c0.33,0.03,0.74-0.24,1.15-0.5c0.51-0.32,1.05-0.67,1.63-0.64c0.53,0.02,1,0.38,1.47,0.73c0.41,0.31,0.84,0.63,1.21,0.63
				c0.32,0.02,0.75-0.29,1.15-0.58c0.49-0.35,0.99-0.71,1.55-0.72c0.55-0.04,1.04,0.32,1.53,0.64c0.42,0.28,0.87,0.55,1.23,0.54
				c0.35-0.02,0.75-0.35,1.13-0.67c0.45-0.38,0.92-0.77,1.47-0.82c0.54-0.06,1.07,0.23,1.59,0.51c0.44,0.24,0.9,0.49,1.25,0.44
				c0.35-0.05,0.72-0.42,1.08-0.78c0.41-0.41,0.84-0.84,1.36-0.95c0.17-0.04,0.34,0.08,0.38,0.25c0.04,0.17-0.08,0.34-0.25,0.38
				c-0.34,0.07-0.69,0.43-1.04,0.77c-0.43,0.43-0.88,0.88-1.44,0.96c-0.56,0.09-1.12-0.22-1.65-0.51c-0.43-0.23-0.87-0.46-1.22-0.44
				c-0.35,0.03-0.74,0.36-1.12,0.68c-0.46,0.39-0.94,0.79-1.5,0.82c-0.57,0.04-1.1-0.31-1.61-0.65c-0.41-0.26-0.83-0.53-1.17-0.53
				c-0.36,0.01-0.78,0.31-1.19,0.6C389.67,419.43,389.18,419.79,388.63,419.79z"/></g><g><path fill="#263156" d="M388.63,423.16c0,0-0.01,0-0.01,0c-0.58-0.01-1.09-0.39-1.59-0.76c-0.38-0.29-0.78-0.58-1.11-0.6
				c-0.39,0.01-0.83,0.27-1.26,0.54c-0.49,0.31-1.01,0.64-1.53,0.6c-0.61-0.04-1.14-0.48-1.6-0.87c-0.35-0.3-0.72-0.6-1.01-0.63
				c-0.45-0.05-0.94,0.23-1.42,0.5c-0.5,0.28-0.96,0.54-1.43,0.48c-1.05-0.13-1.39-0.63-1.66-1.03c-0.21-0.31-0.37-0.54-0.86-0.63
				c-0.17-0.03-0.29-0.2-0.26-0.37c0.03-0.17,0.2-0.29,0.37-0.26c0.76,0.13,1.05,0.56,1.28,0.9c0.25,0.37,0.45,0.66,1.21,0.75
				c0.26,0.02,0.65-0.19,1.04-0.4c0.54-0.3,1.14-0.64,1.79-0.58c0.5,0.05,0.94,0.42,1.37,0.78c0.41,0.34,0.83,0.7,1.23,0.72
				c0.32,0.02,0.74-0.24,1.14-0.5c0.51-0.33,1.05-0.67,1.63-0.64c0.53,0.02,1,0.38,1.47,0.73c0.41,0.31,0.84,0.63,1.21,0.63
				c0,0,0,0,0.01,0c0.34,0,0.75-0.29,1.14-0.58c0.49-0.35,0.99-0.71,1.55-0.72c0.01,0,0.02,0,0.03,0c0.53,0,1.02,0.32,1.5,0.64
				c0.42,0.28,0.86,0.57,1.23,0.54c0.35-0.02,0.75-0.35,1.13-0.67c0.45-0.38,0.92-0.77,1.47-0.82c0.54-0.06,1.07,0.23,1.59,0.51
				c0.44,0.24,0.9,0.49,1.25,0.44c0.35-0.05,0.72-0.42,1.08-0.78c0.41-0.41,0.84-0.84,1.36-0.95c0.17-0.04,0.34,0.08,0.38,0.25
				c0.04,0.17-0.08,0.34-0.25,0.38c-0.34,0.07-0.69,0.43-1.04,0.77c-0.43,0.43-0.88,0.88-1.44,0.96c-0.56,0.08-1.12-0.22-1.65-0.51
				c-0.43-0.23-0.88-0.46-1.22-0.44c-0.35,0.03-0.74,0.36-1.12,0.68c-0.46,0.39-0.94,0.79-1.5,0.82c-0.58,0.04-1.1-0.31-1.61-0.65
				c-0.41-0.27-0.81-0.53-1.17-0.53c-0.36,0.01-0.78,0.31-1.19,0.6C389.67,422.8,389.18,423.16,388.63,423.16z"/></g></g><g><path fill="#dae4fe" d="M153.43,112.68c-0.5,0-1-0.16-1.43-0.49c-7.94-6.2-17.48-9.47-27.59-9.47s-19.65,3.28-27.59,9.47
					c-1.01,0.79-2.47,0.61-3.26-0.4c-0.79-1.01-0.61-2.47,0.4-3.26c8.76-6.84,19.29-10.46,30.45-10.46
					c11.16,0,21.69,3.62,30.45,10.46c1.01,0.79,1.19,2.25,0.4,3.26C154.8,112.37,154.12,112.68,153.43,112.68z"/><path fill="#dae4fe" d="M146.61,121.76c-0.5,0-1.01-0.16-1.44-0.5c-5.96-4.7-13.14-7.19-20.76-7.19c-7.62,0-14.8,2.49-20.76,7.19
					c-1.01,0.8-2.47,0.62-3.27-0.38c-0.8-1.01-0.62-2.47,0.38-3.27c6.79-5.36,14.96-8.19,23.64-8.19s16.85,2.83,23.64,8.19
					c1.01,0.8,1.18,2.26,0.38,3.27C147.97,121.46,147.29,121.76,146.61,121.76z"/><path fill="#dae4fe" d="M109.45,131.45c-0.68,0-1.35-0.29-1.81-0.86c-0.81-1-0.66-2.46,0.34-3.27c4.63-3.75,10.46-5.82,16.42-5.82
					s11.79,2.07,16.42,5.82c1,0.81,1.15,2.27,0.34,3.27c-0.81,1-2.27,1.15-3.27,0.34c-3.8-3.08-8.6-4.78-13.49-4.78
					s-9.69,1.7-13.49,4.78C110.49,131.28,109.97,131.45,109.45,131.45z"/><g><circle cx="124.41" cy="138.35" r="5.99" fill="#dae4fe"/></g></g><line x1="397.46" x2="389.58" y1="151.39" y2="208.66" fill="none" stroke="#263156" stroke-miterlimit="10" stroke-width="1.102"/><line x1="397.88" x2="389.99" y1="183.76" y2="241.03" fill="none" stroke="#263156" stroke-miterlimit="10" stroke-width="1.102"/></svg>